# xmcd
#
# Track frame offsets:
#	150
#	17659
#	34506
#	57677
#	79986
#	97342
#	119200
#	136037
#	152145
#	172418
#	193387
#	212040
#	231373
#	252647
#	272783
#
# Disc length: 3910 seconds
#
# Revision: 7
# Processed by: cddbd v1.5.1PL0 Copyright (c) Steve Scherf et al.
# Submitted via: EasyCDDAExtractor 8.2.1.1
#
DISCID=f00f440f
DTITLE=яелос амтымгс - йаядиа лоу лгм амгсувеис
DYEAR=2002
DGENRE=казйа
TTITLE0=йаядиа лоу лгм амгсувеис
TTITLE1=пес лоу ти фгтас
TTITLE2=ейяуьа то пяосыпо лоу
TTITLE3=дем евы поу ма паы
TTITLE4=тяелы
TTITLE5=ека ма ле текеиысеис
TTITLE6=ти соу 'вы йамеи
TTITLE7=паяадеволаи
TTITLE8=дем текеиысале
TTITLE9=с' ацапы еимаи апко
TTITLE10=саббатобяада
TTITLE11=лг ле яытаеи йамеис
TTITLE12=аяяыстглемо лоу луако
TTITLE13=лета ап' ока аута
TTITLE14=се ейдийгхгйа
EXTD=YEAR: 2002 ID3G: 82 YEAR: 2002 ID3G: 82
EXTT0=
EXTT1=
EXTT2=
EXTT3=
EXTT4=
EXTT5=
EXTT6=
EXTT7=
EXTT8=
EXTT9=
EXTT10=
EXTT11=
EXTT12=
EXTT13=
EXTT14=
PLAYORDER=
